<?xml version="1.0" encoding="iso-8859-1"?>
<!-- Generator: Adobe Illustrator 19.0.0, SVG Export Plug-In . SVG Version: 6.00 Build 0)  -->
<svg version="1.1" id="Layer_1" xmlns="http://www.w3.org/2000/svg" xmlns:xlink="http://www.w3.org/1999/xlink" x="0px" y="0px"
	 viewBox="0 0 469.333 469.333" style="enable-background:new 0 0 469.333 469.333;" xml:space="preserve">
<path style="fill:#FFFFFF;" d="M352,458.667H53.333C41.547,458.667,32,449.12,32,437.333V32c0-11.787,9.547-21.333,21.333-21.333
	h277.333C342.453,10.667,352,20.213,352,32V458.667z"/>
<path style="fill:#F2F2F2;" d="M352,458.667L352,458.667V192h85.333v181.333C437.333,420.459,399.125,458.667,352,458.667z"/>
<path d="M437.333,181.333h-74.667V32c0-17.643-14.357-32-32-32H53.333c-17.643,0-32,14.357-32,32v405.333c0,17.643,14.357,32,32,32
	H352c52.928,0,96-43.072,96-96V192C448,186.112,443.221,181.333,437.333,181.333z M42.667,437.333V32
	c0-5.877,4.789-10.667,10.667-10.667h277.333c5.877,0,10.667,4.789,10.667,10.667v160v256h-288
	C47.456,448,42.667,443.211,42.667,437.333z M426.667,373.333c0,37.557-27.861,68.715-64,73.909V202.667h64V373.333z"/>
<polygon style="fill:#D94452;" points="298.667,416 256,394.667 213.333,416 213.333,320 298.667,320 "/>
<circle style="fill:#E16975;" cx="256" cy="266.667" r="64"/>
<path d="M330.667,266.667C330.667,225.493,297.173,192,256,192s-74.667,33.493-74.667,74.667c0,20.395,8.235,38.88,21.525,52.373
	c-0.032,0.331-0.192,0.619-0.192,0.96v96c0,3.701,1.92,7.125,5.056,9.077c3.147,1.941,7.083,2.112,10.379,0.469L256,406.592
	l37.899,18.944c1.504,0.757,3.136,1.131,4.768,1.131c1.952,0,3.893-0.533,5.611-1.589c3.136-1.952,5.056-5.376,5.056-9.077v-96
	c0-0.341-0.16-0.629-0.192-0.96C322.432,305.547,330.667,287.061,330.667,266.667z M256,213.333
	c29.408,0,53.333,23.925,53.333,53.333C309.333,296.075,285.408,320,256,320c-29.408,0-53.333-23.925-53.333-53.333
	C202.667,237.259,226.592,213.333,256,213.333z M288,398.741l-27.232-13.611C259.275,384.373,257.632,384,256,384
	c-1.632,0-3.275,0.373-4.768,1.12L224,398.741v-57.408v-7.307c9.717,4.64,20.533,7.307,32,7.307s22.283-2.667,32-7.307v7.307
	V398.741z"/>
<path d="M256,309.333c-5.888,0-10.667-4.779-10.667-10.667S250.112,288,256,288c11.765,0,21.333-9.568,21.333-21.333
	c0-11.765-9.568-21.333-21.333-21.333c-5.888,0-10.667-4.779-10.667-10.667S250.112,224,256,224
	c23.531,0,42.667,19.136,42.667,42.667C298.667,290.197,279.531,309.333,256,309.333z"/>
<g>
	<path style="fill:#231F20;" d="M298.667,85.333H85.333c-5.888,0-10.667-4.779-10.667-10.667S79.445,64,85.333,64h213.333
		c5.888,0,10.667,4.779,10.667,10.667S304.555,85.333,298.667,85.333z"/>
	<path style="fill:#231F20;" d="M266.667,128H85.333c-5.888,0-10.667-4.779-10.667-10.667s4.779-10.667,10.667-10.667h181.333
		c5.888,0,10.667,4.779,10.667,10.667S272.555,128,266.667,128z"/>
	<path style="fill:#231F20;" d="M149.333,170.667h-64c-5.888,0-10.667-4.779-10.667-10.667s4.779-10.667,10.667-10.667h64
		c5.888,0,10.667,4.779,10.667,10.667S155.221,170.667,149.333,170.667z"/>
	<path style="fill:#231F20;" d="M298.667,170.667H192c-5.888,0-10.667-4.779-10.667-10.667s4.779-10.667,10.667-10.667h106.667
		c5.888,0,10.667,4.779,10.667,10.667S304.555,170.667,298.667,170.667z"/>
	<path style="fill:#231F20;" d="M160,213.333H85.333c-5.888,0-10.667-4.779-10.667-10.667S79.445,192,85.333,192H160
		c5.888,0,10.667,4.779,10.667,10.667S165.888,213.333,160,213.333z"/>
	<path style="fill:#231F20;" d="M149.333,256h-64c-5.888,0-10.667-4.779-10.667-10.667s4.779-10.667,10.667-10.667h64
		c5.888,0,10.667,4.779,10.667,10.667S155.221,256,149.333,256z"/>
	<path style="fill:#231F20;" d="M149.333,298.667h-64c-5.888,0-10.667-4.779-10.667-10.667s4.779-10.667,10.667-10.667h64
		c5.888,0,10.667,4.779,10.667,10.667S155.221,298.667,149.333,298.667z"/>
	<path style="fill:#231F20;" d="M160,341.333H85.333c-5.888,0-10.667-4.779-10.667-10.667c0-5.888,4.779-10.667,10.667-10.667H160
		c5.888,0,10.667,4.779,10.667,10.667C170.667,336.555,165.888,341.333,160,341.333z"/>
	<path style="fill:#231F20;" d="M170.667,384H85.333c-5.888,0-10.667-4.779-10.667-10.667s4.779-10.667,10.667-10.667h85.333
		c5.888,0,10.667,4.779,10.667,10.667S176.555,384,170.667,384z"/>
</g>
<g>
</g>
<g>
</g>
<g>
</g>
<g>
</g>
<g>
</g>
<g>
</g>
<g>
</g>
<g>
</g>
<g>
</g>
<g>
</g>
<g>
</g>
<g>
</g>
<g>
</g>
<g>
</g>
<g>
</g>
</svg>
