<?xml version="1.0" encoding="iso-8859-1"?>
<!-- Generator: Adobe Illustrator 19.0.0, SVG Export Plug-In . SVG Version: 6.00 Build 0)  -->
<svg version="1.1" id="Layer_1" xmlns="http://www.w3.org/2000/svg" xmlns:xlink="http://www.w3.org/1999/xlink" x="0px" y="0px"
	 viewBox="0 0 511.999 511.999" style="enable-background:new 0 0 511.999 511.999;" xml:space="preserve">
<path style="fill:#E7ECED;" d="M316.555,278.021c0,23.562-13.433,43.821-33.031,53.84v116.817h-55.051V331.859
	c-19.598-10.019-33.031-30.278-33.031-53.84c0-33.471,27.085-60.555,60.555-60.555S316.555,244.549,316.555,278.021z"/>
<path style="fill:#FFD248;" d="M448.677,278.021v225.707H63.322V278.021h132.121c0,23.562,13.433,43.821,33.031,53.84v116.817
	h55.051V331.859c19.598-10.019,33.031-30.278,33.031-53.84h132.121V278.021z"/>
<path style="fill:#546A79;" d="M448.677,162.413V278.02H316.555c0-33.471-27.085-60.555-60.555-60.555s-60.555,27.085-60.555,60.555
	H63.322V162.413H448.677z"/>
<path d="M390.888,154.141V19.281C390.888,8.649,382.237,0,371.606,0H140.393c-10.632,0-19.281,8.65-19.281,19.281v134.86H55.05
	v357.857h401.899V154.141L390.888,154.141L390.888,154.141z M137.655,19.281c0-1.485,1.254-2.737,2.737-2.737h231.213
	c1.485,0,2.737,1.254,2.737,2.737v134.86H137.654V19.281H137.655z M440.405,170.685v99.062H324.312
	c-4.101-34.063-33.163-60.555-68.313-60.555s-64.212,26.492-68.313,60.555H71.594v-99.062H440.405z M232.24,324.494
	c-17.594-8.994-28.524-26.802-28.524-46.474c0-28.83,23.455-52.283,52.283-52.283s52.283,23.455,52.283,52.283
	c0,19.671-10.93,37.479-28.524,46.474l-4.507,2.304v113.606h-38.507V326.798L232.24,324.494z M71.594,495.456V286.293h116.078
	c2.504,20.874,14.395,39.398,32.53,50.416v120.241h71.595V336.709c18.134-11.018,30.026-29.542,32.53-50.416h116.078v209.163H71.594
	z"/>
<rect x="233.976" y="269.744" width="44.041" height="16.544"/>
<polygon points="110.129,209.221 145.898,209.221 145.898,192.677 93.585,192.677 93.585,239.484 110.129,239.484 "/>
<polygon points="401.869,456.92 366.1,456.92 366.1,473.464 418.413,473.464 418.413,426.656 401.869,426.656 "/>
<g>
</g>
<g>
</g>
<g>
</g>
<g>
</g>
<g>
</g>
<g>
</g>
<g>
</g>
<g>
</g>
<g>
</g>
<g>
</g>
<g>
</g>
<g>
</g>
<g>
</g>
<g>
</g>
<g>
</g>
</svg>
