<?xml version="1.0" encoding="iso-8859-1"?>
<!-- Generator: Adobe Illustrator 18.0.0, SVG Export Plug-In . SVG Version: 6.00 Build 0)  -->
<!DOCTYPE svg PUBLIC "-//W3C//DTD SVG 1.1//EN" "http://www.w3.org/Graphics/SVG/1.1/DTD/svg11.dtd">
<svg version="1.1" id="Capa_1" xmlns="http://www.w3.org/2000/svg" xmlns:xlink="http://www.w3.org/1999/xlink" x="0px" y="0px"
	 viewBox="0 0 483.746 483.746" style="enable-background:new 0 0 483.746 483.746;" xml:space="preserve">
<g>
	<path d="M417.617,0h-87.191c4.457,6.254,7.133,13.844,7.133,22.078v263.489c0,3.533,2.864,6.398,6.397,6.398h30.529
		c21.07,0,38.203,17.141,38.203,38.199v131.504c0,8.234-2.676,15.824-7.133,22.078h12.063c12.188,0,22.074-9.883,22.074-22.078
		V22.078C439.691,9.883,429.805,0,417.617,0z"/>
	<path d="M374.488,308.086h-32.206c-11.513,0-20.845-9.333-20.845-20.845V22.074C321.438,9.879,311.547,0,299.359,0H135.043h-68.91
		C53.945,0,44.055,9.879,44.055,22.074v439.59c0,12.195,9.891,22.078,22.078,22.078h68.91h239.445
		c12.188,0,22.078-9.883,22.078-22.078v-131.5C396.566,317.969,386.676,308.086,374.488,308.086z M284.213,387.806
		c-4.852,5.913-12.094,9.337-19.747,9.337H119.373c-7.652,0-14.896-3.424-19.746-9.337c-4.851-5.913-6.803-13.691-5.307-21.196
		l8.914-44.729c3.526-17.715,17.384-31.557,35.115-35.06l12.03-2.378c6.942-1.369,12.376-6.763,13.81-13.684l2.283-11.062
		c0.74-3.544-0.553-7.213-3.338-9.521c-10.881-9.007-20.85-22.265-26.613-37.925c-7.998-1.441-15.305-9.134-17.65-19.725
		c-2.914-13.115,2.865-25.563,12.912-27.792c0.109-0.017,0.252-0.008,0.393-0.039c3.212-34.061,16.816-59.279,59.728-59.279
		c43.65,0,56.768,25.228,59.791,59.302c0.141,0.009,0.252,0,0.361,0.017c10.031,2.229,15.811,14.677,12.896,27.792
		c-2.361,10.591-9.652,18.283-17.652,19.725c-5.746,15.652-15.73,28.911-26.612,37.925c-2.802,2.308-4.078,5.977-3.355,9.528
		l2.301,11.07c1.447,6.912,6.881,12.298,13.809,13.667l12.047,2.378c17.73,3.504,31.588,17.346,35.117,35.06l8.912,44.729
		C291.016,374.114,289.063,381.892,284.213,387.806z"/>
</g>
<g>
</g>
<g>
</g>
<g>
</g>
<g>
</g>
<g>
</g>
<g>
</g>
<g>
</g>
<g>
</g>
<g>
</g>
<g>
</g>
<g>
</g>
<g>
</g>
<g>
</g>
<g>
</g>
<g>
</g>
</svg>
