<?xml version="1.0" encoding="iso-8859-1"?>
<!-- Generator: Adobe Illustrator 19.0.0, SVG Export Plug-In . SVG Version: 6.00 Build 0)  -->
<svg version="1.1" id="Layer_1" xmlns="http://www.w3.org/2000/svg" xmlns:xlink="http://www.w3.org/1999/xlink" x="0px" y="0px"
	 viewBox="0 0 512 512" style="enable-background:new 0 0 512 512;" xml:space="preserve">
<polygon style="fill:#FFE6B8;" points="431.28,10.199 80.72,10.199 80.72,501.801 430.406,501.801 "/>
<g>
	<polygon style="fill:#D35B38;" points="246.889,467.248 243.417,436.995 213.163,433.523 264.744,381.943 298.47,415.669 	"/>
	<polygon style="fill:#D35B38;" points="363.726,467.248 367.198,436.995 397.452,433.523 345.872,381.943 312.147,415.669 	"/>
</g>
<circle style="fill:#FFAD61;" cx="305.487" cy="374.933" r="42.435"/>
<g>
	<path style="fill:#4D3D36;" d="M438.498,2.993C436.585,1.077,433.988,0,431.279,0H80.721c-5.632,0-10.199,4.566-10.199,10.199
		v491.602c0,5.633,4.567,10.199,10.199,10.199h349.686c5.626,0,10.189-4.555,10.199-10.181l0.873-491.602
		C441.484,7.509,440.412,4.91,438.498,2.993z M420.226,491.602H90.92V20.398h330.143L420.226,491.602z"/>
	<path style="fill:#4D3D36;" d="M358.116,374.929c0-29.023-23.611-52.634-52.633-52.634s-52.633,23.611-52.633,52.634
		c0,1.41,0.072,2.803,0.182,4.185l-47.089,47.207c-2.762,2.769-3.697,6.874-2.407,10.567c1.291,3.693,4.579,6.322,8.466,6.768
		l22.207,2.549l2.548,22.207c0.447,3.891,3.081,7.182,6.779,8.47c1.096,0.381,2.229,0.567,3.35,0.567
		c2.665,0,5.277-1.045,7.223-2.997l46.969-47.087c1.453,0.121,2.92,0.198,4.404,0.198c1.468,0,2.917-0.077,4.354-0.195l46.645,47.06
		c1.948,1.965,4.568,3.02,7.246,3.02c1.117,0,2.244-0.184,3.336-0.562c3.706-1.283,6.348-4.578,6.795-8.476l2.549-22.208
		l22.207-2.549c3.881-0.446,7.166-3.067,8.46-6.753c1.295-3.685,0.37-7.786-2.378-10.56l-46.765-47.18
		C358.043,377.764,358.116,376.356,358.116,374.929z M305.483,342.693c17.775,0,32.235,14.46,32.235,32.236
		c0,17.774-14.46,32.235-32.235,32.235c-17.774,0-32.235-14.46-32.235-32.235C273.248,357.154,287.708,342.693,305.483,342.693z
		 M254.61,445.067l-1.06-9.234c-0.541-4.712-4.258-8.43-8.97-8.97l-9.302-1.067l24.592-24.654
		c4.619,8.007,11.281,14.687,19.275,19.328L254.61,445.067z M375.422,425.785l-9.386,1.077c-4.712,0.541-8.43,4.258-8.97,8.97
		l-1.049,9.15l-24.259-24.475c8-4.63,14.672-11.301,19.302-19.301L375.422,425.785z"/>
	<path style="fill:#4D3D36;" d="M131.57,372.271h78.534c5.632,0,10.199-4.566,10.199-10.199s-4.567-10.199-10.199-10.199H131.57
		c-5.632,0-10.199,4.566-10.199,10.199S125.938,372.271,131.57,372.271z"/>
	<path style="fill:#4D3D36;" d="M214.693,81.594h82.614c5.632,0,10.199-4.566,10.199-10.199s-4.567-10.199-10.199-10.199h-82.614
		c-5.632,0-10.199,4.566-10.199,10.199S209.061,81.594,214.693,81.594z"/>
	<path style="fill:#4D3D36;" d="M136.159,124.43h239.681c5.632,0,10.199-4.566,10.199-10.199s-4.567-10.199-10.199-10.199H136.159
		c-5.632,0-10.199,4.566-10.199,10.199S130.527,124.43,136.159,124.43z"/>
	<path style="fill:#4D3D36;" d="M223.363,194.805h107.602c5.632,0,10.199-4.566,10.199-10.199c0-5.633-4.567-10.199-10.199-10.199
		H223.363c-5.632,0-10.199,4.566-10.199,10.199C213.163,190.239,217.731,194.805,223.363,194.805z"/>
	<path style="fill:#4D3D36;" d="M186.645,174.406h-5.61c-5.632,0-10.199,4.566-10.199,10.199c0,5.633,4.567,10.199,10.199,10.199
		h5.61c5.632,0,10.199-4.566,10.199-10.199C196.845,178.973,192.277,174.406,186.645,174.406z"/>
	<path style="fill:#4D3D36;" d="M223.363,234.582h107.602c5.632,0,10.199-4.566,10.199-10.199s-4.567-10.199-10.199-10.199H223.363
		c-5.632,0-10.199,4.566-10.199,10.199S217.731,234.582,223.363,234.582z"/>
	<path style="fill:#4D3D36;" d="M186.645,214.183h-5.61c-5.632,0-10.199,4.566-10.199,10.199s4.567,10.199,10.199,10.199h5.61
		c5.632,0,10.199-4.566,10.199-10.199S192.277,214.183,186.645,214.183z"/>
	<path style="fill:#4D3D36;" d="M223.363,275.378h107.602c5.632,0,10.199-4.566,10.199-10.199s-4.567-10.199-10.199-10.199H223.363
		c-5.632,0-10.199,4.566-10.199,10.199S217.731,275.378,223.363,275.378z"/>
	<path style="fill:#4D3D36;" d="M186.645,254.98h-5.61c-5.632,0-10.199,4.566-10.199,10.199s4.567,10.199,10.199,10.199h5.61
		c5.632,0,10.199-4.566,10.199-10.199S192.277,254.98,186.645,254.98z"/>
</g>
<g>
</g>
<g>
</g>
<g>
</g>
<g>
</g>
<g>
</g>
<g>
</g>
<g>
</g>
<g>
</g>
<g>
</g>
<g>
</g>
<g>
</g>
<g>
</g>
<g>
</g>
<g>
</g>
<g>
</g>
</svg>
